<svg xmlns="http://www.w3.org/2000/svg" version="1.1" xmlns:xlink="http://www.w3.org/1999/xlink" xmlns:svgjs="http://svgjs.com/svgjs" width="1000" height="1000"><svg version="1.1" xmlns="http://www.w3.org/2000/svg" xmlns:xlink="http://www.w3.org/1999/xlink" x="0px" y="0px" viewBox="0 0 1000 1000" enable-background="new 0 0 1000 1000" xml:space="preserve">
<metadata> Svg Vector Icons : http://www.onlinewebfonts.com/icon </metadata>
<g><g transform="translate(0.000000,511.000000) scale(0.100000,-0.100000)"><path d="M5684.9,4747.7c-105.3-90-203-262.3-239.4-421.3c-53.6-245.1-9.6-490.2,176.2-967c245.1-630,258.5-834.8,70.8-1051.2c-74.7-84.2-90-153.2-55.5-235.5c28.7-68.9,113-126.4,183.8-126.4c74.7,0,153.2,57.4,239.4,174.3c113,153.2,162.8,315.9,162.8,532.3c0,216.4-46,402.1-199.2,802.3c-151.3,392.5-183.8,511.3-183.8,668.3c0,134,34.5,239.4,105.3,312.1c103.4,107.2,105.3,231.7,5.7,315.9C5872.5,4818.6,5767.2,4816.7,5684.9,4747.7z"></path><path d="M7285.6,4720.9c-99.6-91.9-189.6-260.4-222.1-415.5c-47.9-231.7,3.8-484.4,208.7-1018.7c220.2-576.4,229.8-721.9,53.6-957.4c-61.3-84.2-78.5-122.5-78.5-185.7c0-141.7,143.6-233.6,279.6-178.1c70.8,30.6,189.6,181.9,258.5,335.1c44.1,93.8,53.6,147.4,61.3,306.4c9.6,239.4-32.6,413.6-212.5,880.8c-220.2,574.4-229.8,754.4-49.8,963.1c122.6,139.8,40.2,348.5-134,348.5C7383.3,4799.4,7356.5,4786,7285.6,4720.9z"></path><path d="M8903.6,4707.5c-176.2-181.9-248.9-432.7-210.6-718.1c24.9-181.9,80.4-361.9,220.2-720c126.4-327.4,162.8-461.5,162.8-616.6c0-134-38.3-237.4-122.6-337c-103.4-122.5-97.6-264.2,13.4-333.2c99.6-63.2,197.2-40.2,294.9,68.9c176.2,191.5,250.8,451.9,214.5,741c-23,181.9-63.2,315.9-218.3,723.8c-141.7,373.4-170.4,488.3-158.9,654.9c5.7,99.6,19.2,141.7,63.2,206.8c122.6,174.2,128.3,189.6,116.8,258.5c-17.2,91.9-107.2,162.8-208.7,162.8C9001.3,4799.4,8982.1,4788,8903.6,4707.5z"></path><path d="M2732.2,3535.7c-132.1-51.7-248.9-153.2-312.1-277.6c-44-84.3-72.8-114.9-141.7-147.4c-111.1-55.5-227.9-174.2-287.2-293c-38.3-78.5-47.9-124.5-45.9-258.5c0-137.9,7.6-178.1,51.7-262.3c68.9-132.1,168.5-229.8,298.7-291c88.1-40.2,134-49.8,260.4-49.8c88.1,1.9,172.3,11.5,199.1,26.8c42.1,23,53.6,17.2,214.5-143.6c147.4-145.5,170.4-178.1,170.4-233.6c0-86.2,76.6-160.8,210.6-204.9c279.6-91.9,580.2-285.3,852.1-547.6c181.9-176.2,243.2-214.5,317.9-195.3c24.9,5.7,118.7,65.1,208.7,130.2c214.5,155.1,524.7,361.9,729.6,484.4c181.9,109.1,222.1,164.7,201.1,279.6c-15.3,76.6-174.3,233.6-421.3,419.3c-174.3,128.3-480.6,283.4-653,331.3c-147.4,40.2-511.3,57.4-612.7,28.7l-76.6-21.1l-195.3,195.3l-193.4,193.4l26.8,76.6c36.4,101.5,34.5,293-5.8,407.9c-44,128.3-229.8,314-358.1,358.1C3044.3,3583.5,2849,3581.6,2732.2,3535.7z"></path><path d="M894,2310.2c-132.1-51.7-248.9-153.2-312.1-277.6c-44-84.2-72.8-114.9-141.7-147.4C95.5,1716.6-7.9,1268.5,225.7,960.3C369.4,770.7,670,673,880.6,747.7l86.2,30.6l208.7-210.6L1386.1,359l-24.9-101.5c-90-383-19.1-942.1,168.5-1315.5c76.6-151.3,262.3-411.7,354.2-497.9c26.8-26.8,49.8-67,49.8-93.8c0-116.8,65.1-469.1,118.7-635.7c116.8-363.8,296.8-660.6,559.1-915.3l158.9-155.1l-869.3-5.7l-871.2-5.7l-55.5-63.2c-72.8-80.4-76.6-187.7-7.7-268.1c95.7-113,808.1-386.8,1397.8-536.1c911.5-229.8,1671.6-323.6,2776.5-342.8c932.5-15.3,1531.8,21.1,2307.3,139.8c846.3,128.3,1715.7,375.3,2225,631.9c218.3,109.1,268.1,195.3,195.3,335.1c-57.4,113-63.2,113-1141.2,113h-980.4l141.7,88.1c480.6,298.7,1016.8,785.1,1359.5,1233.1c501.7,658.7,706.6,1237,633.8,1788.4C9750,738.1,8911.3,1417.9,7687.7,1527c-685.5,61.3-1430.4-203-2403.1-854c-369.6-248.9-585.9-415.5-580.2-451.9c1.9-15.3,26.8-91.9,55.5-170.4c67-187.6,84.2-495.9,38.3-706.6c-55.5-260.4-197.2-490.2-363.8-593.6c-91.9-57.4-233.6-84.2-310.2-59.3c-204.9,68.9-181.9,356.1,30.6,392.5c164.7,26.8,260.4,237.4,256.6,564.9c-1.9,289.1-26.8,344.7-317.9,716.1c-279.6,358.1-626.1,593.6-1020.6,700.8c-224,61.3-610.8,74.7-825.3,28.7l-164.7-34.5l-206.8,206.8l-206.8,206.8l28.7,84.3c42.1,122.5,26.8,335.1-32.6,453.8c-61.3,120.6-222.1,266.2-337,306.4C1206.1,2358.1,1008.9,2356.2,894,2310.2z M7683.9,292c34.5-13.4,212.6-180,396.4-367.7c275.7-281.5,350.4-367.6,409.8-482.5c185.7-358.1,149.3-767.9-101.5-1102.9c-78.5-105.3-1066.5-861.7-1154.6-882.7c-76.6-19.1-178.1,38.3-218.3,120.6l-32.5,70.9l126.4,383c145.5,438.5,155.1,503.6,72.8,585.9l-55.5,55.5h-377.2c-402.1,0-474.9,13.4-534.2,97.7c-49.8,72.8-40.2,178.1,24.9,250.8l55.5,63.2h428.9c484.4,0,561-15.3,702.7-137.9c195.3-166.6,275.7-448.1,191.5-670.2c-9.6-24.9-11.5-44-5.8-44c17.2,0,319.8,231.7,396.4,304.4c40.2,38.3,97.7,113,124.5,164.7c44,82.3,51.7,118.7,51.7,268.1c0,252.8-24.9,294.9-434.7,710.4c-327.4,333.2-340.8,350.4-340.8,423.2c0,111.1,86.2,210.6,187.6,214.5C7611.2,318.8,7649.4,307.3,7683.9,292z"></path></g></g>
</svg><style>@media (prefers-color-scheme: light) { :root { filter: none; } }
</style></svg>