<?xml version="1.0" encoding="UTF-8" standalone="no"?>
<svg
   class="css-1j8o68f"
   viewBox="0 0 369.88 55.728"
   version="1.1"
   id="svg27"
   sodipodi:docname="lapipi-white.svg"
   inkscape:version="1.1.2 (b8e25be8, 2022-02-05)"
   xmlns:inkscape="http://www.inkscape.org/namespaces/inkscape"
   xmlns:sodipodi="http://sodipodi.sourceforge.net/DTD/sodipodi-0.dtd"
   xmlns="http://www.w3.org/2000/svg"
   xmlns:svg="http://www.w3.org/2000/svg">
  <defs
     id="defs31" />
  <sodipodi:namedview
     id="namedview29"
     pagecolor="#ffffff"
     bordercolor="#666666"
     borderopacity="1.0"
     inkscape:pageshadow="2"
     inkscape:pageopacity="0.0"
     inkscape:pagecheckerboard="0"
     showgrid="false"
     inkscape:zoom="2.9712339"
     inkscape:cx="172.65554"
     inkscape:cy="31.804968"
     inkscape:window-width="2117"
     inkscape:window-height="1081"
     inkscape:window-x="0"
     inkscape:window-y="25"
     inkscape:window-maximized="0"
     inkscape:current-layer="svg27" />
  <g
     transform="matrix(0.98368,0,0,0.98368,-4.9184,-2.9182)"
     featurekey="symbolFeature-0"
     id="g21"
     style="fill:#ffffff">
    <g
       id="g19"
       style="fill:#ffffff">
      <path
         d="m 23.638,20.933 c 0.119,0.046 0.242,0.068 0.362,0.068 0.4,0 0.778,-0.243 0.932,-0.638 0.2,-0.515 -0.055,-1.094 -0.57,-1.294 C 24.349,19.063 23,18.516 23,16.5 c 0,-1.178 1.162,-2.353 1.613,-2.71 h 0.001 C 24.711,13.714 27,11.906 27,9.5 27,6.132 24.47,5.11 24.362,5.068 c -0.515,-0.2 -1.095,0.055 -1.294,0.57 -0.2,0.515 0.055,1.094 0.57,1.294 C 23.651,6.938 25,7.485 25,9.5 c 0,1.178 -1.162,2.353 -1.613,2.71 H 23.386 C 23.289,12.287 21,14.095 21,16.5 c 0,3.369 2.53,4.391 2.638,4.433 z"
         id="path9"
         style="fill:#ffffff" />
      <path
         d="m 31.638,20.933 c 0.119,0.046 0.242,0.068 0.362,0.068 0.4,0 0.778,-0.243 0.932,-0.638 0.2,-0.515 -0.055,-1.094 -0.57,-1.294 C 32.349,19.063 31,18.516 31,16.5 c 0,-1.178 1.162,-2.353 1.613,-2.71 h 10e-4 C 32.711,13.714 35,11.906 35,9.5 35,6.132 32.47,5.11 32.362,5.068 c -0.514,-0.2 -1.094,0.055 -1.294,0.57 -0.2,0.515 0.055,1.094 0.57,1.294 C 31.651,6.938 33,7.485 33,9.5 c 0,1.178 -1.162,2.353 -1.613,2.71 H 31.386 C 31.289,12.287 29,14.095 29,16.5 c 0,3.369 2.53,4.391 2.638,4.433 z"
         id="path11"
         style="fill:#ffffff" />
      <path
         d="m 39.638,20.933 c 0.119,0.046 0.242,0.068 0.362,0.068 0.4,0 0.778,-0.243 0.932,-0.638 0.2,-0.515 -0.055,-1.094 -0.57,-1.294 C 40.349,19.063 39,18.516 39,16.5 c 0,-1.178 1.162,-2.353 1.613,-2.71 h 10e-4 C 40.711,13.714 43,11.906 43,9.5 43,6.132 40.47,5.11 40.362,5.068 c -0.514,-0.2 -1.094,0.055 -1.294,0.57 -0.2,0.515 0.055,1.094 0.57,1.294 C 39.651,6.938 41,7.485 41,9.5 c 0,1.178 -1.162,2.353 -1.613,2.71 H 39.386 C 39.289,12.287 37,14.095 37,16.5 c 0,3.369 2.53,4.391 2.638,4.433 z"
         id="path13"
         style="fill:#ffffff" />
      <path
         d="M 57.036,48 H 55 C 55,40.735 51.628,34.261 46.368,30.046 l -3.057,3.057 C 44.366,34.458 45,36.154 45,38 c 0,0.553 -0.447,1 -1,1 -0.553,0 -1,-0.447 -1,-1 0,-3.309 -2.691,-6 -6,-6 -3.309,0 -6,2.691 -6,6 0,3.309 2.691,6 6,6 v 2 c -4.411,0 -8,-3.589 -8,-8 0,-4.411 3.589,-8 8,-8 1.846,0 3.542,0.634 4.897,1.688 l 2.839,-2.839 C 41.09,26.419 36.711,25 32,25 19.297,25 9,35.297 9,48 H 6.964 C 5.879,48 5,48.896 5,50 c 0,1.064 0.819,1.927 1.85,1.988 H 40 c 0.552,0 1,0.448 1,1 0,0.552 -0.448,1 -1,1 H 10.32 L 15,58 h 34 l 4.68,-4.012 H 46 c -0.552,0 -1,-0.448 -1,-1 0,-0.552 0.448,-1 1,-1 H 57.15 C 58.181,51.927 59,51.064 59,50 59,48.896 58.121,48 57.036,48 Z M 18.705,36.709 C 16.247,39.168 15,41.958 15,45 h -2 c 0,-3.542 1.484,-6.899 4.292,-9.707 0,0 0,0 0,0 C 17.474,35.112 17.724,35 18,35 c 0.553,0 1,0.447 1,1 0,0.277 -0.113,0.528 -0.295,0.709 z M 21,34 c -0.553,0 -1,-0.447 -1,-1 0,-0.553 0.447,-1 1,-1 0.553,0 1,0.447 1,1 0,0.553 -0.447,1 -1,1 z"
         id="path15"
         style="fill:#ffffff" />
      <path
         d="m 50.825,25.589 c 0.356,0.548 0.972,0.911 1.675,0.911 1.105,0 2,-0.895 2,-2 0,-1.105 -0.895,-2 -2,-2 0,-1.105 -0.895,-2 -2,-2 -1.105,0 -2,0.895 -2,2 0,0.703 0.363,1.318 0.911,1.675 l -4.674,4.674 c 0.562,0.375 1.105,0.775 1.631,1.197 z"
         id="path17"
         style="fill:#ffffff" />
    </g>
  </g>
  <g
     transform="matrix(1.8884,0,0,1.8884,72.966,-22.604)"
     featurekey="nameFeature-0"
     id="g25"
     style="fill:#ffffff">
    <path
       d="m 13.2,37.36 c 0.24,0.16 0.48,0.36 0.44,0.68 0,0.4 -0.32,0.56 -0.64,0.64 -0.32,0.12 -0.64,0.16 -1,0.2 C 11.24,39 10.48,39.08 9.72,39.2 8.56,39.36 7.4,39.56 6.28,39.8 5.16,40 4.08,40.12 3,39.88 2.36,39.72 1.8,39.56 1.28,39.2 0.88,38.92 0.68,38.56 0.64,38.08 0.44,33.84 0.12,29.6 0.04,25.36 -0.04,21.88 0.12,18.4 0.2,14.92 c 0,-0.44 0.08,-0.84 0.12,-1.24 0.04,-0.48 0.32,-0.8 0.8,-0.92 1.2,-0.36 2.36,-0.28 3.44,0.44 0.32,0.2 0.48,0.48 0.52,0.84 0.08,0.48 0.12,1 0.16,1.52 0.08,3.08 0.12,6.16 0.2,9.24 0.12,3.68 0.28,7.4 0.4,11.08 0,0.28 0.04,0.56 0.08,1 0.72,-0.08 1.32,-0.12 1.88,-0.16 1.24,-0.12 2.52,-0.08 3.76,0.08 0.36,0.04 0.68,0.16 1.04,0.24 0.2,0.08 0.4,0.2 0.6,0.32 z M 1.44,18.2 V 17 C 1.44,16.88 1.32,16.76 1.2,16.52 1.08,16.8 0.96,16.96 0.96,17.08 0.56,22.56 0.48,28 1.16,33.44 1.2,31.52 1.28,29.64 1.2,27.76 c -0.08,-3.2 0,-6.4 0.24,-9.56 z m 11,19.4 C 12.52,37.72 12.4,37.52 12.36,37.52 11.8,37.08 11.12,36.96 10.4,36.96 9.36,36.92 8.16,37 7.16,37.16 c -0.04,0 -0.28,0.2 0.12,0.16 0.8,-0.08 1.84,-0.2 2.64,-0.2 0.84,0 1.8,-0.04 2.52,0.48 z M 29.839,22.72 c -0.2,2.96 -0.44,5.92 -0.56,8.88 -0.08,2.28 0,4.56 0,6.88 0,0.08 0.04,0.2 0.04,0.32 0,0.88 -0.24,1.16 -1.08,1.4 -0.76,0.16 -1.48,0.16 -2.24,0 -0.84,-0.2 -1.2,-0.52 -1.28,-1.4 -0.16,-1.44 -0.2,-2.88 -0.32,-4.32 -0.04,-0.4 -0.04,-0.8 -0.08,-1.32 -1.72,-0.16 -3.32,-0.04 -4.96,0.28 -0.24,0.48 -0.2,0.96 -0.28,1.44 -0.04,0.4 -0.04,0.8 -0.08,1.2 -0.04,0.52 -0.32,0.8 -0.8,0.96 -0.76,0.24 -1.52,0.24 -2.28,0 -0.48,-0.16 -0.8,-0.52 -0.84,-1.08 -0.04,-0.32 -0.04,-0.64 -0.04,-1 -0.16,-5.4 0.92,-10.56 2.96,-15.56 0.6,-1.52 1.36,-2.96 2.28,-4.32 0.36,-0.52 0.76,-1 1.16,-1.48 1.68,-2 4.6,-1.88 6.12,-1.12 0.72,0.36 1.2,0.96 1.52,1.68 0.36,0.8 0.52,1.64 0.64,2.48 0.28,2 0.24,4.04 0.12,6.08 z m -11.76,-0.04 c 0.88,-2.96 2.2,-5.72 4.04,-8.24 0.16,-0.16 0.28,-0.4 0.48,-0.76 0.24,-0.56 -0.44,0 -0.52,0.08 -0.24,0.24 -0.44,0.48 -0.64,0.76 -1.64,2.28 -2.8,4.76 -3.68,7.44 -0.48,1.4 -0.8,2.84 -1.16,4.28 -0.24,1 -0.44,2 -0.56,3.04 -0.16,1 -0.16,1.96 -0.08,2.96 0.12,-0.16 0.16,-0.36 0.16,-0.56 0.2,-1.2 0.28,-2.36 0.56,-3.52 0.4,-1.84 0.88,-3.68 1.4,-5.48 z m 5.96,8.28 c 0.16,-0.88 0.36,-13.08 0.24,-14.24 -0.24,0.24 -0.32,0.32 -0.4,0.44 -0.24,0.44 -0.48,0.84 -0.68,1.28 -1.84,3.88 -3.04,8 -3.64,12.24 -0.04,0.16 0.04,0.28 0.04,0.48 1.56,-0.08 3,-0.16 4.44,-0.2 z m 4.52,-10.6 c 0.08,1 0.72,1.28 0.76,0.36 0.24,-6.08 -1.32,-7.12 -1.32,-7.12 0.52,0.92 0.52,5.76 0.56,6.76 z m 23.439,0.84 c 0.68,3.96 -1.48,7.72 -5.24,9.12 -1.44,0.52 -2.92,0.72 -4.36,1 -0.48,0.12 -1,0.2 -1.6,0.32 -0.04,0.92 -0.12,1.76 -0.12,2.6 -0.04,1.92 -0.04,3.84 -0.04,5.76 v 0.44 c -0.04,0.32 -0.2,0.52 -0.44,0.68 -0.48,0.28 -0.96,0.32 -1.48,0.36 -0.56,0 -1.12,-0.04 -1.64,-0.24 -0.48,-0.2 -0.76,-0.52 -0.8,-1.04 -0.04,-0.8 -0.12,-1.56 -0.16,-2.36 -0.32,-3.92 -0.32,-7.88 -0.16,-11.84 0.08,-2.56 0.2,-5.12 0.32,-7.68 V 17.2 c -0.4,-0.04 -0.8,-0.12 -1.16,-0.16 -0.4,-0.04 -0.76,-0.16 -1.08,-0.4 -0.28,-0.24 -0.32,-0.56 -0.2,-0.88 0.2,-0.48 0.56,-0.8 1,-1.08 0.96,-0.68 2.04,-1.04 3.16,-1.24 2.88,-0.56 5.72,-0.32 8.48,0.84 3.12,1.28 4.92,3.6 5.52,6.92 z M 37.758,17.92 V 17.4 c -0.04,-0.04 -0.12,-0.16 -0.16,-0.12 -0.08,0 -0.2,0.04 -0.24,0.12 -0.08,0.28 -0.12,0.6 -0.16,0.92 -0.12,0.92 -0.2,1.84 -0.28,2.76 -0.28,3.12 -0.28,6.28 -0.24,9.4 0,1.36 0.04,2.68 0.08,4.04 h 0.2 c 0.04,-0.36 0.08,-0.68 0.08,-1.04 0.04,-0.88 0.04,-1.8 0.08,-2.68 0.04,-2.84 0.12,-5.68 0.2,-8.52 0,-0.52 0.08,-1.08 0.16,-1.6 0.08,-0.92 0.2,-1.84 0.28,-2.76 z m 8.2,7.36 c 0.72,-1.6 0.92,-3.28 0.48,-5 -0.64,-2.64 -2.24,-4.32 -4.92,-4.88 -0.16,-0.04 -0.28,0 -0.48,0 0.24,4.44 -0.08,8.84 -0.16,13.36 0.6,0.08 1,-0.16 1.44,-0.28 1.76,-0.48 2.92,-1.56 3.64,-3.2 z m 4.92,-1.32 c 0.04,-0.12 0,-0.52 -0.08,-0.6 h -0.12 c 0,0.04 -0.04,0.12 -0.04,0.2 0.04,0.12 -0.08,0.32 0.12,0.4 0.04,0.04 0.08,0 0.12,0 z m -0.44,-1.48 c 0.04,0.24 0.6,0.56 0.6,0.2 -0.24,-2.44 -1,-5.12 -3.12,-6.6 -0.36,-0.24 -0.4,0.2 -0.12,0.4 0.88,0.64 1.48,1.56 1.92,2.56 0.08,0.28 0.16,0.56 0.28,0.84 0.24,0.88 0.36,1.76 0.44,2.6 z m 11.799,3.24 c -0.12,3.08 -0.24,6.2 -0.4,9.28 -0.04,1.4 -0.2,2.8 -0.28,4.2 0,0.56 -0.28,0.92 -0.8,1.08 -0.88,0.28 -1.76,0.28 -2.64,-0.04 -0.48,-0.16 -0.72,-0.48 -0.8,-1 -0.16,-1.72 -0.32,-3.44 -0.32,-5.16 0.04,-2.68 0.08,-5.32 0.16,-8 0.04,-1.48 0.12,-2.96 0.2,-4.4 0.12,-2 0.24,-4 0.4,-6 0,-0.36 0.08,-0.72 0.12,-1.04 0.08,-0.56 0.4,-0.92 0.92,-1.08 0.92,-0.28 1.84,-0.28 2.76,0.08 0.48,0.16 0.76,0.52 0.76,1.04 0.04,0.44 0.08,0.84 0.08,1.28 -0.04,3.24 -0.12,6.24 -0.16,9.52 z m -4.32,10.64 c 0.04,-0.24 0.08,-0.32 0.08,-0.44 0.2,-1.92 0.16,-3.84 0.16,-5.8 -0.04,-3.44 0.32,-6.92 0.64,-10.36 0.08,-1.16 0.24,-2.32 0.36,-3.52 0.04,-0.16 0,-0.36 -0.24,-0.4 -0.08,0.08 -0.2,0.16 -0.2,0.24 -0.88,6.72 -1.4,13.44 -0.8,20.28 z M 85.756,21.2 c 0.68,3.96 -1.48,7.72 -5.24,9.12 -1.44,0.52 -2.92,0.72 -4.36,1 -0.48,0.12 -1,0.2 -1.6,0.32 -0.04,0.92 -0.12,1.76 -0.12,2.6 -0.04,1.92 -0.04,3.84 -0.04,5.76 v 0.44 c -0.04,0.32 -0.2,0.52 -0.44,0.68 -0.48,0.28 -0.96,0.32 -1.48,0.36 -0.56,0 -1.12,-0.04 -1.64,-0.24 -0.48,-0.2 -0.76,-0.52 -0.8,-1.04 -0.04,-0.8 -0.12,-1.56 -0.16,-2.36 -0.32,-3.92 -0.32,-7.88 -0.16,-11.84 0.08,-2.56 0.2,-5.12 0.32,-7.68 V 17.2 c -0.4,-0.04 -0.8,-0.12 -1.16,-0.16 -0.4,-0.04 -0.76,-0.16 -1.08,-0.4 -0.28,-0.24 -0.32,-0.56 -0.2,-0.88 0.2,-0.48 0.56,-0.8 1,-1.08 0.96,-0.68 2.04,-1.04 3.16,-1.24 2.88,-0.56 5.72,-0.32 8.48,0.84 3.12,1.28 4.92,3.6 5.52,6.92 z M 71.516,17.92 V 17.4 c -0.04,-0.04 -0.12,-0.16 -0.16,-0.12 -0.08,0 -0.2,0.04 -0.24,0.12 -0.08,0.28 -0.12,0.6 -0.16,0.92 -0.12,0.92 -0.2,1.84 -0.28,2.76 -0.28,3.12 -0.28,6.28 -0.24,9.4 0,1.36 0.04,2.68 0.08,4.04 h 0.2 c 0.04,-0.36 0.08,-0.68 0.08,-1.04 0.04,-0.88 0.04,-1.8 0.08,-2.68 0.04,-2.84 0.12,-5.68 0.2,-8.52 0,-0.52 0.08,-1.08 0.16,-1.6 0.08,-0.92 0.2,-1.84 0.28,-2.76 z m 8.2,7.36 c 0.72,-1.6 0.92,-3.28 0.48,-5 -0.64,-2.64 -2.24,-4.32 -4.92,-4.88 -0.16,-0.04 -0.28,0 -0.48,0 0.24,4.44 -0.08,8.84 -0.16,13.36 0.6,0.08 1,-0.16 1.44,-0.28 1.76,-0.48 2.92,-1.56 3.64,-3.2 z m 4.92,-1.32 c 0.04,-0.12 0,-0.52 -0.08,-0.6 h -0.12 c 0,0.04 -0.04,0.12 -0.04,0.2 0.04,0.12 -0.08,0.32 0.12,0.4 0.04,0.04 0.08,0 0.12,0 z m -0.44,-1.48 c 0.04,0.24 0.6,0.56 0.6,0.2 -0.24,-2.44 -1,-5.12 -3.12,-6.6 -0.36,-0.24 -0.4,0.2 -0.12,0.4 0.88,0.64 1.48,1.56 1.92,2.56 0.08,0.28 0.16,0.56 0.28,0.84 0.24,0.88 0.36,1.76 0.44,2.6 z m 11.799,3.24 c -0.12,3.08 -0.24,6.2 -0.4,9.28 -0.04,1.4 -0.2,2.8 -0.28,4.2 0,0.56 -0.28,0.92 -0.8,1.08 -0.88,0.28 -1.76,0.28 -2.64,-0.04 -0.48,-0.16 -0.72,-0.48 -0.8,-1 -0.16,-1.72 -0.32,-3.44 -0.32,-5.16 0.04,-2.68 0.08,-5.32 0.16,-8 0.04,-1.48 0.12,-2.96 0.2,-4.4 0.12,-2 0.24,-4 0.4,-6 0,-0.36 0.08,-0.72 0.12,-1.04 0.08,-0.56 0.4,-0.92 0.92,-1.08 0.92,-0.28 1.84,-0.28 2.76,0.08 0.48,0.16 0.76,0.52 0.76,1.04 0.04,0.44 0.08,0.84 0.08,1.28 -0.04,3.24 -0.12,6.24 -0.16,9.52 z m -4.32,10.64 c 0.04,-0.24 0.08,-0.32 0.08,-0.44 0.2,-1.92 0.16,-3.84 0.16,-5.8 -0.04,-3.44 0.32,-6.92 0.64,-10.36 0.08,-1.16 0.24,-2.32 0.36,-3.52 0.04,-0.16 0,-0.36 -0.24,-0.4 -0.08,0.08 -0.2,0.16 -0.2,0.24 -0.88,6.72 -1.4,13.44 -0.8,20.28 z m 12.279,4.8 c -0.4,0 -0.88,-0.04 -1.24,-0.24 -0.8,-0.36 -1.08,-1.2 -0.64,-1.96 0.16,-0.24 0.36,-0.52 0.64,-0.68 0.88,-0.6 1.76,-0.68 2.72,-0.24 0.6,0.32 0.92,0.72 1.2,1.2 0.16,0.32 0.12,0.6 -0.04,0.84 -0.2,0.32 -0.48,0.52 -0.8,0.64 -0.56,0.32 -1.2,0.44 -1.84,0.44 z m -0.56,-2.28 c 0.32,-0.24 0.72,0 1.04,-0.32 -0.64,-0.04 -0.64,-0.04 -1.04,0.32 z m -0.64,0.84 c 0.04,0.04 0.12,0.08 0.16,0.12 0,-0.24 0.08,-0.44 0.16,-0.68 h -0.16 c 0,0.2 -0.08,0.4 -0.16,0.56 z m 26.879,-8.28 c 0.4,0.24 0.44,0.52 0.24,0.96 -0.04,0.04 -0.04,0.08 -0.04,0.12 -1.24,1.68 -2.4,3.48 -3.96,4.88 -2.4,2.16 -5.2,2.4 -8.12,1.32 -0.84,-0.28 -1.52,-0.84 -2.08,-1.52 -1,-1.08 -1.64,-2.4 -2.08,-3.84 -0.32,-1 -0.48,-2.04 -0.56,-3.08 -0.12,-2.88 0.12,-5.72 1,-8.48 0.56,-1.76 1.36,-3.4 2.52,-4.88 2.56,-3.12 6.28,-3.36 9.08,-2.32 1.16,0.4 2.12,1.12 2.92,2.08 0.48,0.64 0.8,1.36 0.96,2.16 0.12,0.72 -0.16,1.24 -0.88,1.48 -0.84,0.28 -1.72,0.28 -2.56,0 -0.4,-0.12 -0.72,-0.4 -0.88,-0.8 -0.16,-0.28 -0.28,-0.56 -0.44,-0.8 -0.48,-0.76 -1.04,-1.44 -1.96,-1.96 -0.6,0.4 -1.04,0.92 -1.44,1.48 -1.08,1.52 -1.72,3.24 -2.12,5.04 -0.64,2.76 -0.84,5.52 -0.48,8.32 0.16,1.16 0.44,2.28 0.92,3.36 0.32,0.68 0.68,1.32 1.28,1.88 0.24,-0.08 0.48,-0.16 0.64,-0.36 0.72,-0.6 1.4,-1.24 2.04,-1.92 0.76,-0.8 1.52,-1.6 2.08,-2.52 0.72,-1.08 2.88,-1.24 3.92,-0.6 z m -14.8,2.04 c 0.28,0.64 0.32,-0.12 0.2,-0.52 -0.04,-0.2 -0.12,-0.4 -0.2,-0.64 v -0.04 h -0.04 c -0.04,-0.2 -0.12,-0.36 -0.12,-0.52 0,0 -0.12,1.04 0.16,1.72 z m 2.28,-14.92 c 0.04,-0.16 0.04,-0.36 -0.12,-0.36 -0.12,-0.04 -0.24,0.08 -0.36,0.16 -0.04,0.08 -0.08,0.16 -0.12,0.2 -1.92,4.04 -2.68,8.28 -1.8,12.72 v -2.04 c -0.04,-3.56 0.64,-6.96 2.16,-10.16 0.08,-0.2 0.16,-0.36 0.24,-0.52 z m 39.879,17.4 c 0.32,0.24 0.32,0.68 -0.04,0.92 -0.32,0.2 -0.68,0.4 -1.04,0.48 -0.6,0.12 -1.2,0.2 -1.8,0.2 -1.92,0.04 -3.8,0.04 -5.68,0.04 -3.12,0 -6.24,0.32 -9.28,0.88 -0.88,0.12 -1.68,0.36 -2.52,0.52 -0.92,0.16 -1.8,0.12 -2.68,-0.12 -0.32,-0.08 -0.68,-0.24 -0.96,-0.4 -0.48,-0.32 -0.6,-0.72 -0.36,-1.2 0.12,-0.2 0.24,-0.36 0.36,-0.56 1.88,-2.6 3.68,-5.24 5.64,-7.84 2.72,-3.6 5.8,-6.96 9.2,-10 l 1.2,-1.08 c 0.04,-0.04 0.04,-0.12 0.08,-0.2 -0.04,-0.2 -0.2,-0.16 -0.32,-0.16 -2.56,-0.32 -5.08,-0.4 -7.6,-0.24 -0.48,0.04 -0.96,0.12 -1.4,0.16 -0.6,0.08 -1.2,0.08 -1.8,-0.12 -0.16,-0.04 -0.32,-0.12 -0.48,-0.2 -0.44,-0.24 -0.48,-0.68 -0.08,-0.96 0.2,-0.16 0.48,-0.28 0.72,-0.36 0.48,-0.16 1,-0.32 1.48,-0.36 0.96,-0.12 1.92,-0.24 2.88,-0.28 3,-0.08 6,0.12 8.96,0.56 0.6,0.08 1.24,0.12 1.8,0.28 0.4,0.08 0.76,0.28 1.08,0.48 0.44,0.32 0.56,0.72 0.32,1.2 -0.12,0.28 -0.28,0.52 -0.48,0.72 -0.24,0.36 -0.52,0.68 -0.84,0.96 -4.24,4.24 -8.04,8.84 -11.56,13.68 -0.48,0.72 -1,1.4 -1.52,2.08 -0.12,0.12 -0.16,0.28 -0.32,0.52 0.24,0 0.36,0.04 0.48,0 4.28,-0.52 8.56,-0.64 12.88,-0.4 0.52,0.04 1.04,0.04 1.6,0.08 0.44,0.08 0.92,0.16 1.36,0.28 0.24,0.08 0.52,0.24 0.72,0.44 z m -13.4,-20.52 c 0.12,0 0.12,-0.08 0.04,-0.08 -1.96,-0.2 -3.92,0.12 -5.76,0.76 -0.64,0.24 -0.16,0.52 0.08,0.4 1.72,-0.88 3.64,-1.12 5.64,-1.08 z m -4.92,15.04 c 3,-3.44 6.04,-6.84 9.36,-10 0.08,-0.08 0.2,-0.2 0.28,-0.32 0.08,-0.12 0.12,-0.24 -0.08,-0.4 -0.16,0.12 -0.4,0.24 -0.6,0.4 -0.4,0.32 -0.8,0.68 -1.16,1.08 -1.92,2.04 -3.8,4.04 -5.72,6.08 -1.28,1.4 -2.4,2.92 -3.48,4.48 -0.16,0.24 -0.36,0.52 -0.52,0.8 0.16,0.04 0.28,-0.04 0.4,-0.16 0.52,-0.64 1,-1.32 1.52,-1.96 z m 13.96,5.08 c 0.64,0.12 2.08,0.4 2,0.2 -0.16,-0.36 -2.2,-0.52 -3.84,-0.48 0.64,0.04 1.2,0.16 1.84,0.28 z"
       id="path23"
       style="fill:#ffffff" />
  </g>
</svg>
